<svg xmlns="http://www.w3.org/2000/svg" xmlns:xlink="http://www.w3.org/1999/xlink" fill="none" version="1.1" width="290" height="140" viewBox="0 0 290 140"><defs><filter id="master_svg0_80_0054/11_0750" filterUnits="objectBoundingBox" color-interpolation-filters="sRGB" x="0" y="0" width="290" height="140"><feFlood flood-opacity="0" result="BackgroundImageFix"/><feBlend mode="normal" in="SourceGraphic" in2="BackgroundImageFix" result="shape"/><feColorMatrix in="SourceAlpha" type="matrix" result="hardAlpha" values="0 0 0 0 0 0 0 0 0 0 0 0 0 0 0 0 0 0 127 0"/><feOffset dy="0" dx="0"/><feGaussianBlur stdDeviation="50"/><feComposite in2="hardAlpha" operator="arithmetic" k2="-1" k3="1"/><feColorMatrix type="matrix" values="0 0 0 0 0.6000000238418579 0 0 0 0 0 0 0 0 0 1 0 0 0 0.15000000596046448 0"/><feBlend mode="normal" in2="shape" result="effect1_innerShadow"/></filter><filter id="master_svg1_80_0054/11_0754" filterUnits="objectBoundingBox" color-interpolation-filters="sRGB" x="0" y="0" width="40.000003814697266" height="40"><feFlood flood-opacity="0" result="BackgroundImageFix"/><feBlend mode="normal" in="SourceGraphic" in2="BackgroundImageFix" result="shape"/><feColorMatrix in="SourceAlpha" type="matrix" result="hardAlpha" values="0 0 0 0 0 0 0 0 0 0 0 0 0 0 0 0 0 0 127 0"/><feOffset dy="0" dx="0"/><feGaussianBlur stdDeviation="50"/><feComposite in2="hardAlpha" operator="arithmetic" k2="-1" k3="1"/><feColorMatrix type="matrix" values="0 0 0 0 1 0 0 0 0 1 0 0 0 0 1 0 0 0 0.3019607961177826 0"/><feBlend mode="normal" in2="shape" result="effect1_innerShadow"/></filter><filter id="master_svg2_80_0054/11_0759" filterUnits="objectBoundingBox" color-interpolation-filters="sRGB" x="0" y="0" width="40.000003814697266" height="40"><feFlood flood-opacity="0" result="BackgroundImageFix"/><feBlend mode="normal" in="SourceGraphic" in2="BackgroundImageFix" result="shape"/><feColorMatrix in="SourceAlpha" type="matrix" result="hardAlpha" values="0 0 0 0 0 0 0 0 0 0 0 0 0 0 0 0 0 0 127 0"/><feOffset dy="0" dx="0"/><feGaussianBlur stdDeviation="50"/><feComposite in2="hardAlpha" operator="arithmetic" k2="-1" k3="1"/><feColorMatrix type="matrix" values="0 0 0 0 1 0 0 0 0 1 0 0 0 0 1 0 0 0 0.3019607961177826 0"/><feBlend mode="normal" in2="shape" result="effect1_innerShadow"/></filter></defs><g><g filter="url(#master_svg0_80_0054/11_0750)"><path d="M60.3553,0L265,0C278.807,0,290,11.1929,290,25L290,79.6447C290,86.2751,287.366,92.6339,282.678,97.3223L247.322,132.678C242.634,137.366,236.275,140,229.645,140L25,140C11.1929,140,0,128.807,0,115L0,60.3553C0,53.7249,2.63392,47.3661,7.32233,42.6777L42.6777,7.32233C47.3661,2.63392,53.7249,0,60.3553,0" fill="#FFFFFF" fill-opacity="1"/></g><g filter="url(#master_svg1_80_0054/11_0754)"><path d="M0,27.9289C0,32.3835,5.38571,34.6143,8.53553,31.4645L31.4645,8.53553C34.6143,5.38571,32.3835,0,27.9289,0L5,0C2.23858,0,0,2.23858,0,5L0,27.9289Z" fill="#9900FF" fill-opacity="1"/></g><g transform="matrix(-1,0,0,-1,580,280)" filter="url(#master_svg2_80_0054/11_0759)"><path d="M290,167.9289C290,172.3835,295.38571,174.61430000000001,298.53553,171.4645L321.4645,148.53553C324.6143,145.38571,322.3835,140,317.9289,140L295,140C292.23858,140,290,142.23858,290,145L290,167.9289Z" fill="#9900FF" fill-opacity="1"/></g></g></svg>